<svg width="17" height="20" viewBox="0 0 17 20" fill="none" xmlns="http://www.w3.org/2000/svg">
<path d="M15.4533 8.76225L2.40612 0.788607C2.1864 0.65424 1.93478 0.580869 1.67726 0.575939C1.41964 0.571106 1.1655 0.634905 0.940754 0.760862C0.716101 0.886819 0.52905 1.07039 0.39884 1.29272C0.26863 1.51496 0.199997 1.76794 0.199997 2.02555V17.9741C0.20019 18.2316 0.269017 18.4844 0.399227 18.7065C0.529437 18.9287 0.716488 19.1122 0.941141 19.2381C1.16579 19.3641 1.41983 19.4279 1.67735 19.4231C1.93478 19.4184 2.1863 19.3451 2.40612 19.211L15.4533 11.2374C15.6653 11.1078 15.8404 10.9259 15.9619 10.7092C16.0834 10.4925 16.1472 10.2482 16.1472 9.99978C16.1472 9.75135 16.0834 9.50707 15.9619 9.29034C15.8404 9.07371 15.6653 8.89179 15.4533 8.76225Z" fill="white"/>
</svg>
