<svg width="152" height="46" viewBox="0 0 152 46" fill="none" xmlns="http://www.w3.org/2000/svg">
<path d="M13.504 37.3839C15.2107 37.3839 16.736 37.0959 18.08 36.5199C19.4453 35.9439 20.5973 35.1866 21.536 34.2479C22.4747 33.2879 23.1467 32.2426 23.552 31.1119L19.648 29.2879C19.1787 30.4826 18.4107 31.4746 17.344 32.2639C16.2987 33.0319 15.0187 33.4159 13.504 33.4159C12.0107 33.4159 10.6987 33.0639 9.568 32.3599C8.43733 31.6559 7.552 30.6852 6.912 29.4479C6.272 28.1892 5.952 26.7279 5.952 25.0639C5.952 23.3999 6.272 21.9492 6.912 20.7119C7.552 19.4532 8.43733 18.4826 9.568 17.7999C10.6987 17.0959 12.0107 16.7439 13.504 16.7439C15.0187 16.7439 16.2987 17.1386 17.344 17.9279C18.4107 18.6959 19.1787 19.6772 19.648 20.8719L23.552 19.0479C23.1467 17.9172 22.4747 16.8826 21.536 15.9439C20.5973 14.9839 19.4453 14.2159 18.08 13.6399C16.736 13.0639 15.2107 12.7759 13.504 12.7759C11.7973 12.7759 10.2187 13.0852 8.768 13.7039C7.31733 14.3012 6.05867 15.1546 4.992 16.2639C3.92533 17.3519 3.09333 18.6532 2.496 20.1679C1.89867 21.6612 1.6 23.2932 1.6 25.0639C1.6 26.8346 1.89867 28.4772 2.496 29.9919C3.09333 31.4852 3.92533 32.7866 4.992 33.8959C6.05867 35.0052 7.31733 35.8692 8.768 36.4879C10.2187 37.0852 11.7973 37.3839 13.504 37.3839ZM33.9728 37.3839C35.6581 37.3839 37.1941 36.9999 38.5808 36.2319C39.9674 35.4426 41.0768 34.3652 41.9088 32.9999C42.7408 31.6132 43.1568 30.0452 43.1568 28.2959C43.1568 26.5466 42.7408 24.9892 41.9088 23.6239C41.0981 22.2586 39.9994 21.1812 38.6128 20.3919C37.2261 19.6026 35.6794 19.2079 33.9728 19.2079C32.2448 19.2079 30.6874 19.6026 29.3008 20.3919C27.9141 21.1812 26.8048 22.2586 25.9728 23.6239C25.1621 24.9892 24.7568 26.5466 24.7568 28.2959C24.7568 30.0452 25.1621 31.6026 25.9728 32.9679C26.8048 34.3332 27.9141 35.4106 29.3008 36.1999C30.7088 36.9892 32.2661 37.3839 33.9728 37.3839ZM33.9728 33.5439C33.0341 33.5439 32.1914 33.3199 31.4448 32.8719C30.7194 32.4239 30.1434 31.8052 29.7168 31.0159C29.3114 30.2052 29.1088 29.2986 29.1088 28.2959C29.1088 27.2932 29.3114 26.3972 29.7168 25.6079C30.1434 24.8186 30.7194 24.1999 31.4448 23.7519C32.1914 23.2826 33.0341 23.0479 33.9728 23.0479C34.9114 23.0479 35.7328 23.2826 36.4368 23.7519C37.1621 24.1999 37.7274 24.8186 38.1328 25.6079C38.5594 26.3972 38.7728 27.2932 38.7728 28.2959C38.7728 29.2986 38.5594 30.2052 38.1328 31.0159C37.7274 31.8052 37.1621 32.4239 36.4368 32.8719C35.7328 33.3199 34.9114 33.5439 33.9728 33.5439ZM45.3758 36.9999H49.5678V12.7759H45.3758V36.9999ZM52.4782 36.9999H56.6702V12.7759H52.4782V36.9999ZM64.8608 37.3839C67.1221 37.3839 68.9354 36.6372 70.3008 35.1439V36.9999H74.2688V25.4159C74.2688 24.1999 73.9594 23.1226 73.3408 22.1839C72.7221 21.2452 71.8688 20.5199 70.7808 20.0079C69.7141 19.4746 68.4661 19.2079 67.0367 19.2079C65.2874 19.2079 63.7301 19.6239 62.3647 20.4559C60.9994 21.2879 60.0608 22.3866 59.5487 23.7519L62.9728 25.4159C63.2928 24.6266 63.7941 23.9972 64.4768 23.5279C65.1594 23.0372 65.9594 22.7919 66.8767 22.7919C67.8368 22.7919 68.6048 23.0479 69.1808 23.5599C69.7781 24.0506 70.0768 24.6692 70.0768 25.4159V25.9919L64.8928 26.8239C62.8448 27.1652 61.3301 27.8159 60.3487 28.7759C59.3674 29.7359 58.8767 30.9412 58.8767 32.3919C58.8767 33.9279 59.4207 35.1439 60.5087 36.0399C61.5967 36.9359 63.0474 37.3839 64.8608 37.3839ZM63.2288 32.2319C63.2288 31.0159 64.0501 30.2479 65.6927 29.9279L70.0768 29.1919V29.8959C70.0768 31.0906 69.6608 32.1039 68.8288 32.9359C68.0181 33.7679 66.9514 34.1839 65.6287 34.1839C64.9248 34.1839 64.3488 34.0132 63.9008 33.6719C63.4528 33.3092 63.2288 32.8292 63.2288 32.2319ZM86.6872 37.3839C88.3726 37.3839 89.8766 36.9892 91.1992 36.1999C92.5219 35.3892 93.5672 34.3012 94.3352 32.9359C95.1032 31.5492 95.4872 30.0026 95.4872 28.2959C95.4872 26.5892 95.1032 25.0532 94.3352 23.6879C93.5672 22.3012 92.5219 21.2132 91.1992 20.4239C89.8766 19.6132 88.3832 19.2079 86.7192 19.2079C84.4579 19.2079 82.6766 19.9226 81.3752 21.3519V12.7759H77.1832V36.9999H81.1192V35.0479C81.7592 35.7946 82.5592 36.3706 83.5192 36.7759C84.5006 37.1812 85.5566 37.3839 86.6872 37.3839ZM86.2072 33.5439C85.2899 33.5439 84.4579 33.3199 83.7112 32.8719C82.9859 32.4239 82.4099 31.8052 81.9832 31.0159C81.5779 30.2266 81.3752 29.3199 81.3752 28.2959C81.3752 27.2719 81.5779 26.3652 81.9832 25.5759C82.4099 24.7866 82.9859 24.1679 83.7112 23.7199C84.4579 23.2719 85.2899 23.0479 86.2072 23.0479C87.1672 23.0479 88.0099 23.2826 88.7352 23.7519C89.4819 24.1999 90.0686 24.8186 90.4952 25.6079C90.9219 26.3972 91.1352 27.2932 91.1352 28.2959C91.1352 29.2986 90.9219 30.2052 90.4952 31.0159C90.0686 31.8052 89.4819 32.4239 88.7352 32.8719C88.0099 33.3199 87.1672 33.5439 86.2072 33.5439Z" fill="white"/>
<path d="M99.7072 37H103.931V32.52H99.7072V37Z" fill="#3F53D8"/>
<path d="M128.5 0C122.402 0.00687894 116.556 2.4323 112.244 6.74414C107.932 11.056 105.507 16.9021 105.5 23V42.3967C105.501 43.352 105.881 44.2679 106.557 44.9435C107.232 45.619 108.148 45.9989 109.103 46H128.5C134.6 46 140.45 43.5768 144.763 39.2635C149.077 34.9501 151.5 29.1 151.5 23C151.5 16.9 149.077 11.0499 144.763 6.73654C140.45 2.42321 134.6 0 128.5 0Z" fill="#3F53D8"/>
<path d="M115.952 17.6402H120.144V13.1602H115.952V17.6402ZM115.952 37.0002H120.144V19.5922H115.952V37.0002ZM131.567 37.3842C133.252 37.3842 134.788 37.0002 136.175 36.2322C137.561 35.4429 138.671 34.3655 139.503 33.0002C140.335 31.6135 140.751 30.0455 140.751 28.2962C140.751 26.5469 140.335 24.9895 139.503 23.6242C138.692 22.2589 137.593 21.1815 136.207 20.3922C134.82 19.6029 133.273 19.2082 131.567 19.2082C129.839 19.2082 128.281 19.6029 126.895 20.3922C125.508 21.1815 124.399 22.2589 123.567 23.6242C122.756 24.9895 122.35 26.5469 122.35 28.2962C122.35 30.0455 122.756 31.6029 123.567 32.9682C124.399 34.3335 125.508 35.4109 126.895 36.2002C128.303 36.9895 129.86 37.3842 131.567 37.3842ZM131.567 33.5442C130.628 33.5442 129.785 33.3202 129.039 32.8722C128.313 32.4242 127.737 31.8055 127.311 31.0162C126.905 30.2055 126.703 29.2989 126.703 28.2962C126.703 27.2935 126.905 26.3975 127.311 25.6082C127.737 24.8189 128.313 24.2002 129.039 23.7522C129.785 23.2829 130.628 23.0482 131.567 23.0482C132.505 23.0482 133.327 23.2829 134.031 23.7522C134.756 24.2002 135.321 24.8189 135.727 25.6082C136.153 26.3975 136.367 27.2935 136.367 28.2962C136.367 29.2989 136.153 30.2055 135.727 31.0162C135.321 31.8055 134.756 32.4242 134.031 32.8722C133.327 33.3202 132.505 33.5442 131.567 33.5442Z" fill="white"/>
</svg>
