<svg width="504" height="504" viewBox="0 0 504 504" fill="none" xmlns="http://www.w3.org/2000/svg">
<mask id="mask0_1_662" style="mask-type:alpha" maskUnits="userSpaceOnUse" x="0" y="0" width="504" height="504">
<path d="M252 504C391.176 504 504 391.176 504 252C504 112.824 391.176 0 252 0C112.824 0 0 112.824 0 252C0 391.176 112.824 504 252 504Z" fill="#3F53D8"/>
</mask>
<g mask="url(#mask0_1_662)">
<path opacity="0.1" d="M252 504C391.176 504 504 391.176 504 252C504 112.824 391.176 0 252 0C112.824 0 0 112.824 0 252C0 391.176 112.824 504 252 504Z" fill="#FE7F51"/>
<g opacity="0.9">
<path d="M261 325C362.62 325 445 242.62 445 141C445 39.3796 362.62 -43 261 -43C159.38 -43 77 39.3796 77 141C77 242.62 159.38 325 261 325Z" stroke="white" stroke-width="6"/>
<path d="M385 323C486.62 323 569 240.62 569 139C569 37.3796 486.62 -45 385 -45C283.38 -45 201 37.3796 201 139C201 240.62 283.38 323 385 323Z" stroke="white" stroke-width="6"/>
<path d="M286 703C387.62 703 470 620.62 470 519C470 417.38 387.62 335 286 335C184.38 335 102 417.38 102 519C102 620.62 184.38 703 286 703Z" stroke="white" stroke-width="6"/>
</g>
</g>
</svg>
